<?xml version="1.0" standalone="no"?>
<!DOCTYPE svg PUBLIC "-//W3C//DTD SVG 20010904//EN"
 "http://www.w3.org/TR/2001/REC-SVG-20010904/DTD/svg10.dtd">
<svg version="1.0" xmlns="http://www.w3.org/2000/svg"
 width="283.000000pt" height="447.000000pt" viewBox="0 0 283.000000 447.000000"
 preserveAspectRatio="xMidYMid meet">
<metadata>
Created by potrace 1.16, written by Peter Selinger 2001-2019
</metadata>
<g transform="translate(0.000000,447.000000) scale(0.100000,-0.100000)"
fill="#000000" stroke="none">
<path d="M1361 3789 c-148 -29 -231 -135 -218 -277 8 -96 60 -173 137 -206 31
-13 32 -15 15 -21 -119 -40 -254 -150 -342 -277 -62 -90 -139 -242 -186 -369
-56 -149 -167 -525 -167 -564 0 -67 33 -96 175 -153 125 -51 119 -41 106 -174
-19 -185 -25 -574 -12 -838 15 -306 18 -330 42 -330 11 0 19 3 19 7 0 42 82
467 115 598 88 348 178 501 304 513 62 6 108 -18 183 -95 70 -71 121 -138 192
-253 102 -164 227 -433 270 -581 20 -71 38 -80 62 -31 21 45 16 148 -22 432
-14 110 -27 267 -30 360 -5 201 5 245 74 297 52 40 97 43 173 12 60 -23 102
-22 107 3 2 9 -15 40 -38 69 -23 29 -66 102 -96 163 -50 103 -82 193 -238 686
-30 96 -73 211 -94 255 -78 160 -174 257 -282 285 -25 7 -51 14 -58 16 -9 3
-3 13 18 30 17 15 43 50 58 78 23 44 27 63 27 137 0 78 -3 90 -30 134 -49 79
-153 116 -264 94z"/>
</g>
</svg>
